<?xml version="1.0" standalone="no"?>
<svg version="1.0" xmlns="http://www.w3.org/2000/svg"
 width="64.000000pt" height="64.000000pt" viewBox="0 0 64.000000 64.000000"
 preserveAspectRatio="xMidYMid meet">

<g transform="translate(0.000000,64.000000) scale(0.100000,-0.100000)"
fill="#000000" stroke="none">
<path d="M195 565 c-81 -29 -129 -120 -105 -199 16 -52 65 -101 119 -117 38
-11 50 -11 94 5 l51 18 18 -22 c17 -21 17 -24 2 -41 -15 -17 -14 -21 26 -69
46 -54 77 -80 98 -80 18 0 62 46 62 64 0 8 -25 42 -56 75 -49 53 -58 59 -76
50 -17 -9 -24 -7 -41 10 l-21 21 21 37 c29 54 35 88 23 132 -26 97 -123 150
-215 116z m133 -25 c69 -42 94 -139 52 -208 -79 -130 -280 -74 -280 78 0 116
129 190 228 130z m126 -309 c3 -5 -10 -21 -28 -35 -43 -32 -59 -16 -19 19 31
27 39 30 47 16z m30 -30 c3 -5 -10 -21 -28 -35 -44 -33 -62 -14 -20 20 32 26
40 28 48 15z m37 -43 c26 -32 23 -56 -7 -70 -28 -13 -49 -5 -68 25 -9 14 -5
22 19 42 17 13 32 24 33 25 2 0 12 -10 23 -22z"/>
<path d="M201 523 c-102 -53 -101 -175 2 -226 65 -33 145 7 168 83 10 32 9 44
-7 76 -35 71 -103 98 -163 67z m125 -37 c28 -28 34 -42 34 -76 0 -34 -6 -48
-34 -76 -28 -28 -42 -34 -76 -34 -60 0 -110 50 -110 110 0 60 50 110 110 110
34 0 48 -6 76 -34z"/>
</g>
</svg>
